PathFileType	4	(X/Y/Z)	C:/Users/beibeiliu/ov580/test_trc/capture2\sequence.13_training_dense_left.trc
DataRate	CameraRate	NumFrames	NumMarkers	Units	OrigDataRate	OrigDataStartFrame	OrigNumFrames
120	120	24	19	mm	120	93	369
Frame#	Time	ThumbCMC			ThumbMCP			ThumbIP			ThumbTip			IndexMCP			IndexPIP			IndexTip			MiddleMCP			MiddlePIP			MiddleTip			RingMCP			RingPIP			RingTip			PinkyMCP			PinkyPIP			PinkyTip			BackHand1			BackHand2			BackHand3	
		X0	Y0	Z0	X1	Y1	Z1	X2	Y2	Z2	X3	Y3	Z3	X4	Y4	Z4	X5	Y5	Z5	X6	Y6	Z6	X7	Y7	Z7	X8	Y8	Z8	X9	Y9	Z9	X10	Y10	Z10	X11	Y11	Z11	X12	Y12	Z12	X13	Y13	Z13	X14	Y14	Z14	X15	Y15	Z15	X16	Y16	Z16	X17	Y17	Z17	X18	Y18	Z18	
92	0.766667	-67.3201	69.7363	-2.11311	-60.2077	59.158	-29.5124	-47.709	59.9701	-58.515	-53.0449	66.8466	-81.2279	-55.5779	111.187	-63.0686	-51.8341	97.5533	-92.693	-61.9338	71.7424	-100.024	-74.2398	121.168	-72.2568	-70.7585	107.156	-101.671	-72.6792	74.4766	-115.954	-95.325	121.121	-76.4007	-92.5626	106.676	-103.904	-89.0226	81.0905	-115.689	-116.728	117.843	-70.0456	-112.172	108.857	-95.9047	-104.018	84.6173	-114.203	-110.32	118.711	-21.6303	-116.264	108.423	7.44066	-85.622	107.251	-0.848242	
93	0.775	-68.017	71.1939	-1.75191	-57.5721	59.033	-31.1037	-50.2757	56.3509	-54.0851	-48.6406	58.7467	-79.8738	-52.3732	107.399	-63.7646	-49.9824	92.7835	-92.4855	-60.1119	60.891	-99.2968	-70.5621	114.96	-77.9352	-69.0291	101.19	-102.967	-76.1325	69.12	-115.686	-95.6172	115.71	-81.2462	-93.2252	101.528	-103.585	-87.8145	70.5119	-115.087	-113.471	113.122	-71.4531	-110.816	102.438	-97.8581	-104.739	76.0818	-113.18	-105.46	118.483	-23.0719	-113.261	108.932	3.37722	-82.0014	109.17	-2.68244	
94	0.783333	-69.3453	74.9614	-0.704247	-54.4681	56.1421	-27.137	-46.8813	53.5555	-55.9402	-51.2443	55.0291	-77.1052	-52.8601	102.527	-69.9117	-54.2007	86.4612	-94.2456	-60.1914	57.0826	-97.5897	-71.7346	109.572	-80.4394	-69.1485	91.2305	-105.545	-76.7606	58.0931	-115.299	-96.9043	108.767	-82.0412	-93.0804	92.9336	-104.195	-91.6602	59.4006	-114.838	-115.912	105.859	-73.7538	-118.678	94.2678	-97.7588	-107.772	67.6781	-113.968	-107.393	113.885	-25.3646	-116.186	111.292	1.54804	-84.9639	110.116	-6.50694	
95	0.791667	-68.118	78.7718	-1.15911	-54.8415	57.9106	-23.1212	-48.6555	54.6694	-52.5321	-48.1978	48.8586	-74.7718	-56.3471	100.264	-74.165	-55.8544	78.9458	-95.4551	-62.1399	47.2028	-94.1873	-78.9315	104.561	-83.8008	-72.8886	87.0835	-104.597	-76.5743	50.5432	-111.862	-101.186	100.974	-84.5794	-97.3799	83.7849	-104.083	-91.8633	53.338	-110.738	-123.038	98.557	-73.5435	-116.806	80.6189	-100.87	-104.728	57.9869	-110.03	-112.362	115.102	-31.7606	-117.554	109.637	-0.844566	-81.7271	113.492	-8.95864	
96	0.8	-66.6938	82.1705	-2.10739	-55.2213	62.1298	-24.1866	-43.3526	51.3187	-51.1268	-49.2169	47.5496	-73.3797	-58.7628	97.4833	-72.8619	-51.2581	74.3989	-93.8064	-57.7336	41.7181	-91.9481	-82.2337	98.2446	-81.5562	-76.7354	75.7922	-105.332	-73.6802	44.4557	-108.425	-99.2996	94.1512	-84.6799	-94.6735	71.975	-104.527	-88.9276	42.3595	-105.854	-120.498	90.3047	-77.5956	-114.995	71.6728	-98.0607	-106.388	46.2767	-105.8	-115.884	110.986	-33.6802	-122.684	112.298	-5.58362	-85.0034	112.868	-9.3481	
97	0.808333	-69.2278	86.0147	-0.898018	-54.1052	63.9291	-19.708	-46.6048	53.6069	-43.0143	-47.4241	44.9319	-70.9364	-60.3399	96.3219	-71.3246	-51.4953	68.4242	-91.8544	-52.9975	37.1924	-87.5641	-85.5105	91.8159	-83.035	-74.5203	66.7722	-103.097	-68.2549	35.4943	-102.243	-101.6	86.5754	-84.4544	-97.6335	62.3621	-101.848	-87.093	32.8357	-100.437	-122.37	82.3808	-76.613	-113.4	62.5274	-96.457	-101.892	35.7663	-101.367	-116.169	109.489	-34.9405	-126.867	108.82	-3.53713	-91.1125	114.379	-16.0519	
98	0.816667	-67.9879	90.9259	1.26597	-50.7551	66.6087	-14.8676	-42.3555	54.5426	-42.2452	-47.505	45.5219	-63.385	-65.2115	91.4974	-72.0805	-53.0736	64.279	-88.1595	-51.2819	35.8223	-84.1734	-85.7382	85.7461	-82.7783	-74.6559	63.6359	-98.4879	-65.809	26.9462	-94.167	-104.407	78.2007	-83.5118	-97.9083	54.615	-97.5075	-83.3409	27.8184	-93.2246	-123.023	73.4596	-74.3507	-112.651	53.1833	-91.7485	-98.0021	25.7225	-93.8379	-121.019	103.842	-36.9423	-131.187	106.929	-5.39023	-93.9253	114.637	-13.0333	
99	0.825	-72.689	93.5153	-2.70776	-52.6625	70.968	-16.1503	-41.0226	57.2745	-35.5799	-43.3399	44.4263	-57.003	-66.4335	86.8959	-73.8284	-54.6318	64.5884	-85.9518	-48.789	33.1838	-78.2626	-87.7972	81.271	-81.2983	-72.3854	54.7576	-95.4455	-60.6762	22.8084	-86.2037	-105.007	70.2975	-83.1887	-91.9232	48.1439	-93.6689	-75.9862	22.8567	-85.071	-122.363	67.8326	-70.0622	-112.714	46.2273	-87.326	-94.988	23.0329	-85.5522	-126.777	100.371	-36.7296	-132.425	105.319	-9.20846	-101.854	116.343	-16.159	
100	0.833333	-77.0391	96.6705	2.48171	-51.9037	74.5167	-13.2416	-41.2395	60.6621	-31.8523	-39.1415	46.2019	-53.2604	-67.9102	87.5688	-71.4076	-55.5756	63.9127	-83.1383	-47.4586	31.9379	-72.7929	-87.0456	75.4979	-83.8618	-72.9413	52.6806	-93.3905	-55.8358	23.2989	-80.756	-104.722	68.7004	-79.2977	-89.689	45.2417	-90.4024	-71.8867	18.291	-78.3828	-124.617	58.8929	-70.7732	-109.051	40.6636	-84.2755	-89.6615	17.8227	-80.3748	-128.634	95.9122	-38.0834	-135.09	103.797	-6.44725	-102.418	114.507	-18.187	
101	0.841667	-76.2499	99.5032	-3.10117	-57.3617	78.0183	-12.0841	-44.1024	63.9279	-31.8185	-39.0762	49.472	-51.16	-69.5183	87.909	-72.483	-54.5341	65.9344	-82.4763	-45.3072	33.4797	-69.2493	-88.665	76.2446	-79.8614	-70.9352	48.0922	-91.0019	-56.8816	23.2248	-78.3597	-103.577	65.283	-79.7795	-86.7892	38.0025	-88.3389	-68.4819	18.8789	-74.6762	-122.961	54.6991	-69.4679	-106.282	37.6672	-81.1516	-83.9094	14.2661	-74.4861	-130.739	93.5831	-38.0687	-138.676	98.1684	-11.9426	-106.2	115.489	-23.6823	
102	0.85	-78.298	103.114	-3.93234	-54.459	82.8065	-15.1415	-42.1031	68.641	-31.391	-36.9552	52.9045	-50.918	-69.7477	88.1458	-75.7706	-53.4729	65.7962	-83.0903	-44.3151	39.8705	-70.1423	-89.7352	72.8794	-82.6562	-67.3211	52.9579	-91.466	-51.0013	26.325	-77.6377	-105.401	60.3351	-78.3465	-82.9747	38.8401	-86.4925	-64.2997	18.8439	-71.4296	-119.748	52.4729	-66.4693	-99.8107	33.5007	-79.0298	-78.4663	13.1969	-70.1093	-132.84	88.145	-39.3238	-138.423	97.4719	-12.5928	-112.711	112.599	-25.3034	
103	0.858333	-84.5589	104.137	-5.87961	-58.678	89.1499	-14.978	-39.6323	76.6554	-31.7281	-33.8318	60.4718	-52.004	-76.2281	87.7553	-76.4501	-55.4849	65.9968	-83.7807	-39.015	44.4435	-67.648	-90.6696	72.6043	-82.4802	-67.9155	50.4093	-91.4349	-47.966	32.184	-79.2038	-102.505	59.6883	-78.4012	-81.2028	39.5402	-85.7645	-57.6062	22.551	-68.4214	-117.607	47.5762	-67.4695	-95.685	31.0215	-77.2087	-69.8243	15.7586	-68.2582	-133.348	83.1749	-39.2968	-141.575	92.754	-13.2653	-117.306	110.03	-26.2986	
104	0.866667	-88.601	108.903	-6.23119	-60.4678	94.2499	-18.784	-40.0628	83.4344	-34.4139	-32.2569	66.7639	-55.2942	-78.0895	88.6197	-78.0451	-55.6143	66.6388	-83.6698	-37.3104	47.1061	-66.3906	-92.972	69.5496	-82.5569	-68.701	52.2751	-92.4462	-41.4284	34.1519	-76.6852	-101.594	53.8885	-80.0545	-80.3829	39.2026	-85.6833	-52.5854	27.2335	-69.147	-116.273	44.7458	-62.674	-93.782	29.1863	-75.4333	-67.3666	15.3739	-67.757	-136.825	78.8196	-40.1451	-148.487	88.4116	-10.206	-119.519	110.633	-25.419	
105	0.875	-91.5067	110.38	-11.516	-62.033	99.5942	-18.3866	-45.0499	87.2371	-37.1131	-34.32	75.3516	-50.2457	-78.879	90.1895	-78.1946	-59.0124	70.3197	-84.6022	-33.0785	54.1411	-68.0134	-90.9579	72.7255	-83.076	-68.0898	54.8298	-92.4166	-38.7476	39.8958	-79.099	-102.826	55.1568	-74.9656	-74.0619	39.2564	-84.8	-46.4888	29.3544	-68.4016	-113.602	38.7636	-62.5973	-91.5617	26.1568	-74.4313	-63.6623	21.8494	-69.5545	-134.293	78.5908	-38.3282	-146.709	87.228	-10.7088	-123.581	104.454	-30.241	
106	0.883333	-92.5726	115.563	-10.8846	-62.2003	106.099	-17.3612	-44.3708	92.6453	-37.4465	-34.1547	75.4155	-55.057	-79.4891	88.1861	-80.7597	-55.9659	73.1348	-85.9266	-33.8494	59.2173	-69.5094	-90.3739	68.0591	-85.0912	-66.0171	54.8284	-91.0306	-36.4525	40.2521	-76.7079	-100.801	53.551	-75.0151	-75.2035	37.2753	-82.7888	-47.5206	30.7664	-69.4295	-107.977	39.0706	-64.6726	-87.3848	23.6038	-73.0336	-55.2034	20.39	-66.1261	-134.503	71.0394	-38.9983	-147.659	82.2047	-9.71804	-125.946	106.901	-28.8077	
107	0.891667	-97.2311	114.152	-10.9105	-64.8571	106.299	-23.6486	-47.6491	96.6353	-37.6938	-34.7934	81.2797	-55.4733	-83.7179	91.3893	-80.1126	-58.0919	75.1805	-87.1064	-34.4655	62.1543	-70.645	-90.4141	67.072	-84.7611	-62.8657	55.7093	-91.5868	-37.4659	45.3568	-79.0453	-98.5407	50.3606	-75.8291	-73.9098	36.2867	-83.4811	-43.0978	36.8369	-71.0895	-107.409	37.7354	-63.2531	-84.8409	27.6123	-72.6936	-54.5326	26.3927	-67.8082	-135.594	67.4275	-38.2731	-147.356	78.6179	-9.90757	-130.214	104.244	-31.7397	
108	0.9	-100.088	115.559	-12.5137	-69.7253	107.853	-24.1503	-48.6753	101.575	-40.3277	-37.4213	86.8771	-54.5493	-85.8329	91.9778	-81.7935	-59.2673	78.3933	-89.1117	-31.5076	70.4334	-73.0007	-91.2213	69.7124	-86.8004	-62.3037	57.1665	-93.0101	-33.5199	51.5597	-80.501	-96.4341	49.3966	-78.7696	-72.4086	38.9036	-84.9896	-41.6714	40.0166	-72.1603	-105.331	36.7464	-63.3047	-79.8974	26.9833	-74.2601	-53.8758	29.6794	-72.3923	-135.154	68.3612	-38.9365	-147.612	76.6452	-13.0265	-130.282	100.209	-32.0709	
109	0.908333	-102.224	115.022	-16.876	-69.9394	115.279	-26.0962	-52.1207	104.327	-42.3702	-39.7253	88.756	-60.3163	-87.879	89.8795	-83.6493	-63.8986	82.2067	-91.4081	-37.2588	74.9733	-78.6139	-96.0192	70.7285	-84.322	-65.6499	60.0452	-96.6764	-37.9253	52.7691	-84.7065	-98.2247	51.5509	-78.9456	-69.1212	42.7441	-86.8532	-43.2931	41.2394	-77.3438	-104.865	35.7335	-65.3949	-79.8924	32.8881	-77.4658	-50.9748	31.0174	-74.3122	-136.159	65.6302	-35.773	-149.226	75.1206	-11.0915	-134.933	101.067	-30.606	
110	0.916667	-105.624	118.22	-14.7253	-72.1355	116.694	-31.0611	-55.4141	106.934	-48.1723	-46.6231	90.8594	-63.8682	-93.0472	92.5208	-85.4702	-64.7909	82.25	-93.1773	-40.1372	78.2977	-82.7371	-96.7392	71.4864	-88.8775	-68.4793	61.1697	-99.1107	-34.5486	59.5458	-87.7774	-100.091	54.1318	-80.7081	-73.2432	45.7076	-90.7767	-42.9118	44.9908	-82.4861	-104.594	39.4135	-65.9471	-81.3857	34.3536	-79.087	-53.8845	36.9237	-78.3988	-136.411	63.0174	-36.2213	-148.515	70.7364	-10.0064	-137.303	100.323	-31.4497	
111	0.925	-109.136	117.189	-18.1014	-79.7122	118.195	-29.336	-61.3608	112.656	-50.2727	-48.4788	100.099	-67.9692	-98.2314	94.2879	-88.0472	-72.1944	85.9372	-98.4823	-42.7061	82.4248	-84.5135	-101.332	73.6661	-92.3074	-74.6164	64.1015	-102.158	-39.6797	63.1742	-92.6775	-102.019	52.6625	-82.2868	-75.8457	46.5057	-94.6542	-45.918	50.2552	-88.1077	-106.854	37.3946	-65.0705	-84.0176	33.3833	-82.3721	-50.4413	38.7092	-84.7515	-135.089	63.2596	-41.9118	-147.345	70.3911	-11.3618	-139.744	95.1663	-30.1832	
112	0.933333	-112.92	120.227	-17.8255	-82.8443	120.891	-34.8551	-66.4723	116.059	-54.4588	-52.2993	104.806	-73.5222	-104.577	96.0951	-89.4581	-75.1065	92.0829	-102.541	-45.6452	88.8322	-88.4084	-106.997	70.3435	-89.6866	-80.4681	69.9046	-106.49	-47.202	69.9393	-100.003	-104.326	53.7271	-85.2369	-79.5892	49.723	-98.0408	-49.857	56.6183	-93.7977	-104.674	39.5386	-70.1366	-86.0114	38.2606	-83.8579	-54.556	44.7532	-88.064	-136.98	60.7002	-37.2485	-146.307	67.9081	-12.758	-142.941	94.4654	-32.981	
113	0.941667	-114.674	119.727	-21.5258	-88.1119	122.441	-34.5794	-69.4572	120.021	-57.0988	-56.8845	107.994	-77.5645	-109.93	95.4875	-89.1763	-80.2461	91.4849	-104.583	-51.2532	92.5366	-93.3054	-107.907	68.8607	-94.4224	-84.8545	70.7292	-109.062	-46.725	72.7856	-100.8	-107.191	54.7141	-87.2819	-83.4385	53.1982	-100.477	-49.6045	59.5511	-97.3213	-105.956	39.2355	-67.8667	-82.6321	37.213	-87.311	-54.0232	45.5655	-92.2106	-137.339	62.4167	-40.5254	-146.63	62.4896	-9.80405	-144.593	93.9429	-29.5248	
114	0.95	-118.741	116.401	-17.4539	-90.009	121.095	-39.6346	-73.9309	119.378	-61.4185	-62.724	108.533	-76.9623	-114.875	95.4684	-90.8302	-86.4076	93.6363	-106.028	-59.0572	91.5162	-97.287	-113.676	73.7579	-92.9291	-84.0052	69.6701	-109.995	-56.1989	76.1326	-107.789	-108.692	51.7575	-87.5179	-86.7183	52.4699	-101.092	-56.1253	61.3194	-101.396	-107.174	41.6182	-66.4739	-87.362	40.6644	-87.2828	-58.3385	45.5784	-94.3923	-136.715	58.9583	-34.617	-143.978	59.9235	-11.1439	-146.932	89.1369	-28.2052	
115	0.958333	-119.325	114.107	-20.1273	-93.6462	120.71	-35.5486	-75.4697	121.498	-61.9287	-65.6776	110	-79.4044	-118.232	94.9688	-89.7945	-89.3427	93.8858	-107.574	-63.0029	96.3779	-100.859	-115.107	68.371	-92.5158	-86.3869	66.9124	-110.127	-59.1069	76.268	-108.545	-111.767	54.7073	-83.2624	-83.6702	53.943	-103.66	-56.9525	64.3172	-101.539	-105.735	38.7891	-70.0252	-85.043	37.4617	-86.2182	-59.3662	50.1448	-96.7196	-136.042	56.4021	-36.4132	-144.786	61.0447	-9.33284	-146.483	91.8443	-29.3876	
